<svg width="20" height="20" viewBox="0 0 20 20" fill="none" xmlns="http://www.w3.org/2000/svg">
<g clip-path="url(#clip0_1103_2143)">
<rect width="20" height="20" fill="white" fill-opacity="0.01"/>
<path d="M15.1723 0.0574951C16.3557 -0.238355 17.5024 0.65701 17.5024 1.87683V3.40027H18.1274C19.1629 3.40027 20.0023 4.23987 20.0024 5.27527V16.5253C20.0024 17.5608 19.163 18.4003 18.1274 18.4003H1.87743C0.841919 18.4002 0.00242615 17.5608 0.00242615 16.5253V5.27527C0.00257654 4.26815 0.797173 3.44636 1.79344 3.40222L15.1723 0.0574951ZM1.87743 4.65027C1.53237 4.6503 1.25258 4.93024 1.25243 5.27527V16.5253C1.25243 16.8704 1.53228 17.1502 1.87743 17.1503H18.1274C18.4726 17.1503 18.7524 16.8704 18.7524 16.5253V5.27527C18.7523 4.93022 18.4725 4.65027 18.1274 4.65027H1.87743ZM16.2524 1.87683C16.2524 1.47026 15.8705 1.17185 15.4761 1.27039L6.95457 3.40027H16.2524V1.87683Z" fill="#FD7E14"/>
</g>
<defs>
<clipPath id="clip0_1103_2143">
<rect width="20" height="20" fill="white"/>
</clipPath>
</defs>
</svg>
